HIERARCHY
ROOT Hips
{
	OFFSET -0.179506 -22.333345 2.821913
	CHANNELS 6 Xposition Yposition Zposition Zrotation Yrotation Xrotation 
	JOINT LeftUpLeg
	{
		OFFSET 6.951974 -9.140623 -0.681533
		CHANNELS 3 Zrotation Yrotation Xrotation
		JOINT LeftLeg
		{
			OFFSET 3.427654 -37.519855 -0.449580
			CHANNELS 3 Zrotation Yrotation Xrotation
			JOINT LeftFoot
			{
				OFFSET -1.359570 -39.796059 -4.369333
				CHANNELS 3 Zrotation Yrotation Xrotation
				JOINT LeftToe
				{
					OFFSET 2.635814 -5.579078 11.928840
					CHANNELS 3 Zrotation Yrotation Xrotation
					End Site
					{
						OFFSET 0.000000 0.000000 0.000000
					}
				}
			}
		}
	}
	JOINT RightUpLeg
	{
		OFFSET -6.767048 -9.052170 -0.431982
		CHANNELS 3 Zrotation Yrotation Xrotation
		JOINT RightLeg
		{
			OFFSET -3.829005 -38.256897 -0.885003
			CHANNELS 3 Zrotation Yrotation Xrotation
			JOINT RightFoot
			{
				OFFSET 1.577377 -39.841461 -4.231180
				CHANNELS 3 Zrotation Yrotation Xrotation
				JOINT RightToe
				{
					OFFSET -2.537174 -4.814398 12.334795
					CHANNELS 3 Zrotation Yrotation Xrotation
					End Site
					{
						OFFSET 0.000000 0.000000 0.000000
					}
				}
			}
		}
	}
	JOINT Spine
	{
		OFFSET -0.253288 10.896323 -2.669631
		CHANNELS 3 Zrotation Yrotation Xrotation
		JOINT Spine1
		{
			OFFSET 0.548704 13.518043 0.109247
			CHANNELS 3 Zrotation Yrotation Xrotation
			JOINT Spine2
			{
				OFFSET 0.145701 5.292222 2.542457
				CHANNELS 3 Zrotation Yrotation Xrotation
				JOINT Neck
				{
					OFFSET -0.277840 21.387037 -4.285703
					CHANNELS 3 Zrotation Yrotation Xrotation
					JOINT Head
					{
						OFFSET 0.515184 6.496960 5.134897
						CHANNELS 3 Zrotation Yrotation Xrotation
						End Site
						{
							OFFSET 0.000000 0.000000 0.000000
						}
					}
				}
				JOINT LeftShoulder
				{
					OFFSET 7.884473 12.174932 -3.408961
					CHANNELS 3 Zrotation Yrotation Xrotation
					JOINT LeftArm
					{
						OFFSET 9.097692 3.046888 -0.886815
						CHANNELS 3 Zrotation Yrotation Xrotation
						JOINT LeftForeArm
						{
							OFFSET 25.961220 -1.277207 -2.745643
							CHANNELS 3 Zrotation Yrotation Xrotation
							JOINT LeftHand
							{
								OFFSET 24.923361 0.898606 -0.117091
								CHANNELS 3 Zrotation Yrotation Xrotation
								End Site
								{
									OFFSET 0.000000 0.000000 0.000000
								}
							}
						}
					}
				}
				JOINT RightShoulder
				{
					OFFSET -8.175920 11.883285 -3.861528
					CHANNELS 3 Zrotation Yrotation Xrotation
					JOINT RightArm
					{
						OFFSET -9.601238 3.255117 -0.914307
						CHANNELS 3 Zrotation Yrotation Xrotation
						JOINT RightForeArm
						{
							OFFSET -25.374195 -1.332924 -2.140099
							CHANNELS 3 Zrotation Yrotation Xrotation
							JOINT RightHand
							{
								OFFSET -25.529810 0.777228 -0.555919
								CHANNELS 3 Zrotation Yrotation Xrotation
								End Site
								{
									OFFSET 0.000000 0.000000 0.000000
								}
							}
						}
					}
				}
			}
		}
	}
}
MOTION
Frames: 9
Frame Time: 0.033333
-17.676401 7.402512 86.630394 -119.583621 2.432104 83.246293 14.803205 5.844744 -7.217342 -7.258705 3.437478 35.076797 1.454226 9.985629 -30.168951 nan nan nan -17.076595 -13.920643 -13.776586 2.193172 -15.966974 34.068354 4.359909 -6.032654 -12.194107 nan nan nan -3.466724 1.143847 4.756970 6.006266 -5.444909 8.980455 0.565223 0.236427 -3.724638 1.500655 -19.272294 16.970947 4.251823 -16.940440 14.202466 -14.685195 -11.718821 2.951118 -69.124849 -39.650413 33.582411 167.202269 -75.518831 -135.244318 -5.053605 -16.845452 3.826157 14.914938 8.434076 -2.590137 30.654932 19.594843 -10.348119 -70.326011 46.277850 -59.752852 7.006626 8.705426 -4.161368 
-17.672659 7.406723 86.636627 -119.585743 2.445008 83.283299 14.798723 5.836581 -7.263814 -7.195457 3.468065 35.097627 1.480483 9.909858 -30.126574 nan nan nan -17.047062 -13.901758 -13.821913 2.137456 -16.013630 34.076963 4.343146 -5.991338 -12.173243 nan nan nan -3.442407 1.073161 4.752534 5.990288 -5.461013 8.948506 0.541251 0.237243 -3.734747 1.517076 -19.146534 17.002366 4.223639 -16.933082 14.155844 -14.667358 -11.614218 2.869641 -69.140467 -39.555625 33.582996 167.285169 -75.540050 -135.296947 -4.986463 -16.876577 3.986641 14.879956 8.423743 -2.540565 30.748724 19.721019 -10.303412 -70.261891 46.271802 -59.613319 6.833595 8.742993 -4.040391 
-17.680124 7.414516 86.641548 -119.610233 2.460320 83.328525 14.776268 5.844303 -7.305473 -7.083952 3.521115 35.112404 1.518080 9.834901 -30.083892 nan nan nan -17.036838 -13.885692 -13.929619 2.066155 -16.112883 34.168339 4.316428 -5.885606 -12.156805 nan nan nan -3.410699 0.982245 4.715332 5.980576 -5.470326 8.932630 0.520428 0.241997 -3.765790 1.496663 -19.033424 17.093669 4.183808 -16.897412 14.082475 -14.727032 -11.445280 2.772428 -69.363177 -39.338599 33.692271 167.353436 -75.549329 -135.400216 -5.027717 -16.869291 4.163876 14.870858 8.381500 -2.446905 30.822117 19.914134 -10.288604 -70.172250 46.281382 -59.540118 6.747336 8.775866 -3.890670 
-17.695248 7.419502 86.645798 -119.626505 2.457453 83.322134 14.761395 5.848287 -7.254201 -7.064400 3.542368 35.064188 1.536153 9.775696 -30.107702 nan nan nan -17.077175 -13.900316 -13.941616 2.063824 -16.143159 34.226305 4.286347 -5.803453 -12.196746 nan nan nan -3.416168 0.971564 4.725780 5.976270 -5.444517 8.957841 0.516914 0.241457 -3.817612 1.556088 -19.025525 17.048147 4.108984 -16.912707 14.129733 -14.759780 -11.373840 2.748339 -69.584450 -39.252877 33.832623 167.224988 -75.534892 -135.299064 -5.276322 -16.850963 4.212912 14.888657 8.342237 -2.407068 30.842747 19.944196 -10.254423 -70.249320 46.205310 -59.638337 6.945907 8.760958 -3.918850 
-17.690643 7.411989 86.661667 -119.638585 2.472883 83.261829 14.777368 5.851068 -7.227235 -7.082750 3.534772 35.154124 1.554749 9.830012 -30.123004 nan nan nan -17.071468 -13.870325 -13.873022 2.082982 -16.075063 34.217870 4.268330 -5.788310 -12.164345 nan nan nan -3.445000 1.000352 4.638997 5.987792 -5.449679 9.296431 0.528700 0.289088 -3.933943 1.644761 -18.943589 17.034028 4.135509 -17.046676 14.012224 -14.730246 -11.554343 2.722742 -69.243802 -39.646692 33.714906 166.930356 -75.779430 -134.905837 -5.448415 -16.810779 4.662073 14.865970 8.523070 -2.336156 30.829755 19.808039 -10.246016 -70.443643 45.936841 -59.627083 6.957497 8.775190 -3.993176 
-17.713610 7.448969 86.675919 -119.544551 2.649416 82.588093 15.170162 5.561719 -6.529266 -6.581218 3.202618 35.338365 1.580482 8.197396 -29.828127 nan nan nan -17.242603 -13.351935 -12.571913 1.871903 -17.101406 33.748188 4.213256 -4.864385 -12.222059 nan nan nan -4.357119 1.954695 6.947127 7.069436 -5.136417 7.824987 1.628094 0.057782 -4.334761 2.108813 -18.389067 16.067286 4.028879 -19.002069 13.876065 -14.324241 -11.504788 1.700875 -72.586116 -40.761189 37.306745 142.018490 -78.853894 -123.499708 -5.768599 -27.968941 -10.434198 13.660184 8.484907 -6.600115 31.340175 16.922355 -7.210984 -69.855431 45.714822 -59.853111 7.960531 10.644789 -4.468197 
-17.710176 7.441329 86.674088 -119.574602 2.648722 82.537475 15.163241 5.597208 -6.475806 -6.602196 3.110133 35.327455 1.554716 8.320109 -29.761479 nan nan nan -17.217212 -13.292072 -12.432649 1.897210 -17.004388 33.595160 4.272328 -5.007759 -12.167374 nan nan nan -4.439522 1.984155 6.779916 7.111048 -5.210243 8.321870 1.694314 0.113201 -4.501261 2.146172 -18.344717 16.075249 4.065921 -19.111308 13.671603 -14.256473 -11.640991 1.657245 -72.410212 -40.941525 37.292741 141.753338 -78.836247 -123.245381 -5.402768 -27.823865 -10.655944 13.595429 8.806268 -6.674642 31.256391 16.684722 -6.935940 -69.915408 45.314893 -59.753925 7.513874 10.732354 -4.927141 
-17.724710 7.455058 86.661896 -119.613987 2.633265 82.567098 15.162995 5.562979 -6.465833 -6.642536 3.175842 35.304943 1.519637 8.338745 -29.692739 nan nan nan -17.202947 -13.304602 -12.411650 1.918120 -16.922102 33.503759 4.319289 -5.098559 -12.165876 nan nan nan -4.496465 1.922410 6.755963 7.113693 -5.291452 8.284350 1.738003 0.152266 -4.527672 2.114877 -18.248636 16.181347 4.057137 -19.080193 13.639749 -14.257530 -11.578468 1.772327 -71.827883 -40.858060 36.843199 143.614092 -78.438342 -126.092895 -6.240964 -27.319121 -9.700943 13.646028 8.942882 -6.464414 31.088074 16.688911 -7.040189 -69.859084 45.307223 -60.053190 7.746712 10.553875 -4.788930 
-17.729511 7.470545 86.655846 -119.663669 2.673741 82.549520 15.234954 5.556548 -6.416979 -6.702482 3.206405 35.298932 1.304264 8.293360 -29.676083 nan nan nan -17.166874 -13.269236 -12.361481 1.957450 -16.888576 33.436328 4.398188 -5.118824 -12.186383 nan nan nan -4.438066 1.836160 6.888024 7.107868 -5.226582 7.935269 1.749183 0.235607 -4.338715 2.075424 -18.199836 16.260145 4.046682 -19.116734 13.613147 -14.157067 -11.577275 1.583804 -72.426192 -40.696313 37.201619 142.879405 -78.665151 -124.360977 -5.515553 -27.750790 -10.344574 13.573950 8.950055 -6.576396 31.151162 16.563018 -6.921235 -69.756873 45.260612 -59.800422 7.444565 10.791870 -5.176358 
